<svg width="475" height="475" viewBox="0 0 475 475" fill="none" xmlns="http://www.w3.org/2000/svg">
<path d="M452.2 237C465.344 237 476.123 247.682 474.811 260.761C470.93 299.438 457.619 336.705 435.89 369.226C409.738 408.365 372.567 438.87 329.079 456.883C285.59 474.897 237.736 479.61 191.569 470.427C145.401 461.244 102.993 438.576 69.7086 405.291C36.4237 372.007 13.7564 329.599 4.5731 283.431C-4.61018 237.264 0.103015 189.41 18.1167 145.921C36.1303 102.433 66.6354 65.262 105.774 39.1102C138.295 17.3808 175.562 4.0695 214.239 0.188919C227.318 -1.12332 238 9.65562 238 22.8V22.8C238 35.9444 227.303 46.4467 214.261 48.0855C185.015 51.7605 156.908 62.1921 132.219 78.6882C100.908 99.6096 76.5043 129.346 62.0933 164.137C47.6824 198.928 43.9118 237.211 51.2585 274.145C58.6051 311.079 76.7389 345.005 103.367 371.633C129.995 398.261 163.921 416.395 200.855 423.742C237.789 431.088 276.072 427.318 310.863 412.907C345.654 398.496 375.39 374.092 396.312 342.781C412.808 318.092 423.24 289.985 426.915 260.739C428.553 247.697 439.056 237 452.2 237V237Z" fill="#fff"/>
</svg>
